 http://www.imdb.com/title/tt1074191/

User Rating:5.8/10 - 120 votes

Crime/Drama/Mystery/Thriller

Director:Amanda Gusack

Cast:Melissa George/Oded Fehr/Christian Campbell/Alice Krige, and others.

Plot:
The story follows a young woman as she's put through a psychological journey under the thumb of a mysterious figure who suspects her husband of stealing millions from a crime syndicate....

Info:

Covers included.

General
Complete name                    : The Betrayed-AC3-5,1-DVDRip[Eng]2008.avi
Format                           : AVI
Format/Info                      : Audio Video Interleave
File size                        : 1.20 GiB
Duration                         : 1h 38mn
Overall bit rate                 : 1 737 Kbps
Writing application              : VirtualDubMod 1.5.4.1 (build 2178/release)
Writing library                  : VirtualDubMod build 2178/release

Video
Format                           : MPEG-4 Visual
Format profile                   : Simple@L3
Format settings, BVOP            : No
Format settings, QPel            : No
Format settings, GMC             : No warppoints
Format settings, Matrix          : Default
Codec ID                         : XVID
Codec ID/Hint                    : XviD
Duration                         : 1h 38mn
Bit rate                         : 1 279 Kbps
Width                            : 720 pixels
Height                           : 416 pixels
Display aspect ratio             : 16/9
Frame rate                       : 23.976 fps
Resolution                       : 24 bits
Colorimetry                      : 4:2:0
Scan type                        : Progressive
Bits/(Pixel*Frame)               : 0.178
Stream size                      : 902 MiB (74%)
Writing library                  : XviD 1.1.2 (UTC 2006-11-01)

Audio
Format                           : AC-3
Format/Info                      : Audio Coding 3
Codec ID                         : 2000
Duration                         : 1h 38mn
Bit rate mode                    : Constant
Bit rate                         : 448 Kbps
Channel(s)                       : 6 channels
Channel positions                : Front: L C R, Surround: L R, LFE
Sampling rate                    : 48.0 KHz
Stream size                      : 316 MiB (26%)
Alignment                        : Split accross interleaves
Interleave, duration             : 42 ms (1.00 video frame)
Interleave, preload duration     : 500 ms

Enjoy...